<svg xmlns="http://www.w3.org/2000/svg" viewBox="0 0 40 39.01"><defs><style>.cls-1{fill:none;stroke:#2c3149;stroke-linecap:round;stroke-linejoin:round;stroke-width:4px;}</style></defs><title>Asset 2</title><g id="Layer_2" data-name="Layer 2"><g id="Icons"><path class="cls-1" d="M18.61,11.17l3.18-8.6a.87.87,0,0,1,1.57-.15L37.87,26.31A.88.88,0,0,1,37,27.64L22.85,26,9.68,34a3.53,3.53,0,0,1-4.83-1.18L2.51,29a3.5,3.5,0,0,1,1.18-4.82l13.05-7.93m-.5,18.65.49.81a2.75,2.75,0,0,0,3.79.92h0a2.75,2.75,0,0,0,.93-3.79l-2.64-4.35-4.72,2.87m2.7-15.11L22.85,26"/></g></g></svg>