<svg xmlns="http://www.w3.org/2000/svg" viewBox="0 0 40 38.51"><defs><style>.cls-1,.cls-2{fill:none;stroke:#2c3149;stroke-linecap:round;stroke-linejoin:round;}.cls-1{stroke-width:4px;}.cls-2{stroke-width:3px;}</style></defs><title>Asset 1</title><g id="Layer_2" data-name="Layer 2"><g id="Icons"><path class="cls-1" d="M16.74,16.22l-13,7.93A3.5,3.5,0,0,0,2.51,29l2.34,3.86A3.53,3.53,0,0,0,9.68,34l13.17-8L37,27.64a.88.88,0,0,0,.85-1.33L23.36,2.42a.87.87,0,0,0-1.57.15l-3.18,8.6"/><path class="cls-2" d="M16.24,34.87l.49.81a2.75,2.75,0,0,0,3.79.92h0a2.75,2.75,0,0,0,.93-3.79l-2.64-4.35-4.72,2.87"/><line class="cls-1" x1="16.79" y1="16.22" x2="22.85" y2="26"/></g></g></svg>