<?xml version="1.0" encoding="utf-8"?>
<!-- Generator: Adobe Illustrator 22.1.0, SVG Export Plug-In . SVG Version: 6.00 Build 0)  -->
<svg version="1.1" id="Layer_1" xmlns="http://www.w3.org/2000/svg" xmlns:xlink="http://www.w3.org/1999/xlink" x="0px" y="0px"
	 width="45.5px" height="43px" viewBox="0 0 45.5 43" enable-background="new 0 0 45.5 43" xml:space="preserve">
<g>
	<g>
		<g>
			<path fill="#2D3149" d="M30.3,42H10c-3.3,0-6-2.7-6-6V8c0-3.3,2.7-6,6-6h13.6c0.5,0,1,0.2,1.4,0.6l10.6,10.2
				c0.4,0.4,0.6,0.9,0.6,1.4V36C36.3,39.3,33.6,42,30.3,42z M10,6C8.9,6,8,6.9,8,8v28c0,1.1,0.9,2,2,2h20.3c1.1,0,2-0.9,2-2V15.1
				L22.9,6H10z"/>
		</g>
		<g>
			<path fill="#2D3149" d="M34.3,17.8h-8.9c-2.8,0-5-2.2-5-5V4.2c0-1.1,0.9-2,2-2s2,0.9,2,2v8.5c0,0.6,0.4,1,1,1h8.9
				c1.1,0,2,0.9,2,2S35.4,17.8,34.3,17.8z"/>
		</g>
	</g>
	<g>
		<path fill="#2D3149" d="M28.4,33.4H11.6c-1.1,0-2-0.9-2-2s0.9-2,2-2h16.7c1.1,0,2,0.9,2,2S29.5,33.4,28.4,33.4z"/>
	</g>
	<g>
		<path fill="#2D3149" d="M28.4,24.6H11.7c-1.1,0-2-0.9-2-2s0.9-2,2-2h16.7c1.1,0,2,0.9,2,2S29.5,24.6,28.4,24.6z"/>
	</g>
	<g>
		<path fill="#2D3149" d="M16.3,15.7h-4.7c-1.1,0-2-0.9-2-2s0.9-2,2-2h4.7c1.1,0,2,0.9,2,2S17.4,15.7,16.3,15.7z"/>
	</g>
</g>
</svg>
