<?xml version="1.0" encoding="utf-8"?>
<!-- Generator: Adobe Illustrator 22.1.0, SVG Export Plug-In . SVG Version: 6.00 Build 0)  -->
<svg version="1.1" id="Layer_1" xmlns="http://www.w3.org/2000/svg" xmlns:xlink="http://www.w3.org/1999/xlink" x="0px" y="0px"
	 width="45.5px" height="43px" viewBox="0 0 45.5 43" enable-background="new 0 0 45.5 43" xml:space="preserve">
<g>
	<g>
		<path fill="#2D3149" d="M17.2,41.3c-3,0-5.8-1.2-7.9-3.3c-4.5-4.5-4.5-11.8,0-16.3l18-18c3.3-3.3,8.8-3.3,12.1,0
			c3.3,3.3,3.3,8.8,0,12.1L22.1,33c-1.1,1.1-2.5,1.7-4,1.7s-3-0.6-4-1.7c-1.1-1.1-1.7-2.5-1.7-4s0.6-3,1.7-4l12-12
			c0.8-0.8,2-0.8,2.8,0c0.8,0.8,0.8,2,0,2.8l-12,12c-0.3,0.3-0.5,0.8-0.5,1.2s0.2,0.9,0.5,1.2c0.7,0.7,1.8,0.7,2.4,0l17.1-17.1
			c1.8-1.8,1.8-4.7,0-6.4c-1.8-1.8-4.7-1.8-6.4,0l-18,18c-2.9,2.9-2.9,7.7,0,10.6c1.4,1.4,3.2,2.1,5.1,2.1c1.9,0,3.8-0.8,5.1-2.1
			l13-13c0.8-0.8,2-0.8,2.8,0c0.8,0.8,0.8,2,0,2.8l-13,13C23,40.1,20.2,41.3,17.2,41.3z"/>
	</g>
</g>
</svg>
