<?xml version="1.0" encoding="utf-8"?>
<!-- Generator: Adobe Illustrator 22.1.0, SVG Export Plug-In . SVG Version: 6.00 Build 0)  -->
<svg version="1.1" id="Layer_1" xmlns="http://www.w3.org/2000/svg" xmlns:xlink="http://www.w3.org/1999/xlink" x="0px" y="0px"
	 width="39.8px" height="39.8px" viewBox="0 0 39.8 39.8" enable-background="new 0 0 39.8 39.8" xml:space="preserve">
<g>
	<path fill="#2D3149" d="M19.9,39.7c-2.2,0-4-1.8-4-3.9H2.6c-0.8,0-1.5-0.5-1.8-1.2c-0.3-0.7-0.2-1.5,0.3-2.1C3.6,29.4,5,25.2,5,20
		v-4.2c0-2,0.4-4,1.1-5.8c0.4-1,1.6-1.5,2.6-1.1c1,0.4,1.5,1.6,1.1,2.6C9.2,12.8,9,14.3,9,15.8V20c0,4.5-0.9,8.5-2.6,11.7h27.2
		c-1.8-3.3-2.6-7.2-2.6-11.7v-4.2c0-6.4-4.9-11.6-11-11.6c-3,0-5.8,1.3-7.9,3.6c-0.7,0.8-2,0.9-2.8,0.1c-0.8-0.7-0.9-2-0.1-2.8
		c2.9-3.2,6.7-4.9,10.9-4.9c8.3,0,15,7,15,15.6V20c0,5.2,1.3,9.4,3.9,12.4c0.5,0.6,0.6,1.4,0.3,2.1c-0.3,0.7-1,1.2-1.8,1.2H24
		C23.9,38,22.1,39.7,19.9,39.7z"/>
</g>
</svg>
