<?xml version="1.0" encoding="iso-8859-1"?>
<!-- Generator: Adobe Illustrator 19.0.0, SVG Export Plug-In . SVG Version: 6.00 Build 0)  -->
<svg version="1.1" id="Capa_1" xmlns="http://www.w3.org/2000/svg" xmlns:xlink="http://www.w3.org/1999/xlink" x="0px" y="0px"
	 viewBox="0 0 512 512" style="enable-background:new 0 0 512 512;" xml:space="preserve">
<g>
	<g>
		<path d="M424.615,147.89c4.185,0,7.577-3.391,7.577-7.577V8.815c0-4.86-3.954-8.815-8.815-8.815h-68.609h-54.83H119.559
			C97.64,0,79.808,17.831,79.808,39.751v432.498C79.808,494.168,97.64,512,119.56,512h305.055c4.185,0,7.577-3.391,7.577-7.577
			s-3.392-7.577-7.577-7.577h-12.398v-49.194h12.398c4.185,0,7.577-3.391,7.577-7.577V182.203c0-4.186-3.392-7.577-7.577-7.577
			c-4.185,0-7.577,3.391-7.577,7.577v250.296H119.559c-9.282,0-17.825,3.207-24.598,8.559V39.751
			c0.001-13.563,11.035-24.597,24.598-24.597h172.802v75.87c0,4.186,3.392,7.577,7.577,7.577h54.831
			c4.185,0,7.577-3.391,7.577-7.577v-75.87h54.692v125.159C417.038,144.497,420.43,147.89,424.615,147.89z M119.559,447.652h277.504
			v17.021h-60.491c-4.185,0-7.577,3.391-7.577,7.577s3.393,7.577,7.577,7.577h60.491v17.02H119.559
			c-13.563,0-24.598-11.034-24.598-24.597C94.962,458.685,105.996,447.652,119.559,447.652z M347.192,83.447h-39.677V15.154h39.677
			V83.447z"/>
	</g>
</g>
<g>
	<g>
		<path d="M136.081,240.109c-4.185,0-7.577,3.391-7.577,7.577v160.888c0,4.186,3.393,7.577,7.577,7.577s7.577-3.391,7.577-7.577
			V247.686C143.658,243.5,140.265,240.109,136.081,240.109z"/>
	</g>
</g>
<g>
	<g>
		<path d="M335.46,129.963H230.394c-4.185,0-7.577,3.391-7.577,7.577s3.393,7.577,7.577,7.577h103.551v62.815H195.637v-62.815h9.345
			c4.185,0,7.577-3.391,7.577-7.577s-3.392-7.577-7.577-7.577h-10.86c-7.52,0-13.639,6.118-13.639,13.639v65.846
			c0,7.52,6.118,13.639,13.639,13.639H335.46c7.52,0,13.639-6.118,13.639-13.639v-65.846
			C349.099,136.081,342.98,129.963,335.46,129.963z"/>
	</g>
</g>
<g>
	<g>
		<path d="M305.632,168.947h-80.443c-4.185,0-7.577,3.391-7.577,7.577s3.392,7.577,7.577,7.577h80.443
			c4.185,0,7.577-3.391,7.577-7.577S309.816,168.947,305.632,168.947z"/>
	</g>
</g>
<g>
</g>
<g>
</g>
<g>
</g>
<g>
</g>
<g>
</g>
<g>
</g>
<g>
</g>
<g>
</g>
<g>
</g>
<g>
</g>
<g>
</g>
<g>
</g>
<g>
</g>
<g>
</g>
<g>
</g>
</svg>
