<?xml version="1.0" encoding="utf-8"?>
<!-- Generator: Adobe Illustrator 22.1.0, SVG Export Plug-In . SVG Version: 6.00 Build 0)  -->
<svg version="1.1" id="Layer_1" xmlns="http://www.w3.org/2000/svg" xmlns:xlink="http://www.w3.org/1999/xlink" x="0px" y="0px"
	 width="45.5px" height="43px" viewBox="0 0 45.5 43" enable-background="new 0 0 45.5 43" xml:space="preserve">
<g>
	<g>
		<path fill="#2D3149" d="M36.3,41.5h-30c-2.8,0-5-2.2-5-5V12.3c0-2.8,2.2-5,5-5h22c1.1,0,2,0.9,2,2s-0.9,2-2,2h-22
			c-0.6,0-1,0.4-1,1v24.2c0,0.6,0.4,1,1,1h30c0.6,0,1-0.4,1-1V12.3c0-0.6-0.4-1-1-1h-1.7c-1.1,0-2-0.9-2-2s0.9-2,2-2h1.7
			c2.8,0,5,2.2,5,5v24.2C41.3,39.2,39,41.5,36.3,41.5z"/>
	</g>
	<g>
		<g>
			<path fill="#2D3149" d="M28.9,15.2c-1.1,0-2-0.9-2-2l0-7.5c0-1.1,0.9-2,2-2c0,0,0,0,0,0c1.1,0,2,0.9,2,2l0,7.5
				C30.9,14.3,30,15.2,28.9,15.2C28.9,15.2,28.9,15.2,28.9,15.2z"/>
		</g>
		<g>
			<path fill="#2D3149" d="M13.6,15.2C13.6,15.2,13.6,15.2,13.6,15.2c-1.1,0-2-0.9-2-2l0-7.5c0-1.1,0.9-2,2-2c0,0,0,0,0,0
				c1.1,0,2,0.9,2,2l0,7.5C15.6,14.3,14.7,15.2,13.6,15.2z"/>
		</g>
	</g>
	<g>
		<g>
			<g>
				
					<path fill="none" stroke="#2D3149" stroke-width="4" stroke-linecap="round" stroke-linejoin="round" stroke-miterlimit="10" d="
					M13.6,22.2"/>
			</g>
			<g>
				<path fill="#2D3149" d="M13.6,24.2c-1.1,0-2-0.9-2-2v0c0-1.1,0.9-2,2-2s2,0.9,2,2S14.7,24.2,13.6,24.2z"/>
			</g>
			<g>
				
					<path fill="none" stroke="#2D3149" stroke-width="4" stroke-linecap="round" stroke-linejoin="round" stroke-miterlimit="10" d="
					M13.6,30"/>
			</g>
			<g>
				<path fill="#2D3149" d="M13.6,32c-1.1,0-2-0.9-2-2v0c0-1.1,0.9-2,2-2s2,0.9,2,2S14.7,32,13.6,32z"/>
			</g>
		</g>
		<g>
			<g>
				<g>
					
						<path fill="none" stroke="#2D3149" stroke-width="4" stroke-linecap="round" stroke-linejoin="round" stroke-miterlimit="10" d="
						M21.3,22.2"/>
				</g>
				<g>
					<path fill="#2D3149" d="M21.2,24.2c-0.5,0-1-0.2-1.4-0.6l0,0c-0.8-0.8-0.8-2,0-2.8c0.8-0.8,2-0.8,2.8,0
						c0.8,0.8,0.8,2.1,0.1,2.9C22.3,24,21.8,24.2,21.2,24.2z"/>
				</g>
				<g>
					
						<path fill="none" stroke="#2D3149" stroke-width="4" stroke-linecap="round" stroke-linejoin="round" stroke-miterlimit="10" d="
						M21.3,30"/>
				</g>
				<g>
					<path fill="#2D3149" d="M21.2,32c-0.5,0-1-0.2-1.4-0.6l0,0c-0.8-0.8-0.8-2,0-2.8c0.8-0.8,2-0.8,2.8,0c0.8,0.8,0.8,2.1,0.1,2.9
						C22.3,31.8,21.8,32,21.2,32z"/>
				</g>
			</g>
			<g>
				
					<path fill="none" stroke="#2D3149" stroke-width="4" stroke-linecap="round" stroke-linejoin="round" stroke-miterlimit="10" d="
					M21.3,22.2"/>
			</g>
			<g>
				
					<path fill="none" stroke="#2D3149" stroke-width="4" stroke-linecap="round" stroke-linejoin="round" stroke-miterlimit="10" d="
					M21.3,30"/>
			</g>
		</g>
		<g>
			<g>
				<path fill="#2D3149" d="M28.9,24.2c-1.1,0-2-0.9-2-2v0c0-1.1,0.9-2,2-2s2,0.9,2,2S30,24.2,28.9,24.2z"/>
			</g>
			<g>
				<path fill="#2D3149" d="M28.9,32c-1.1,0-2-0.9-2-2v0c0-1.1,0.9-2,2-2s2,0.9,2,2S30,32,28.9,32z"/>
			</g>
		</g>
	</g>
</g>
</svg>
