<?xml version="1.0" encoding="utf-8"?>
<!-- Generator: Adobe Illustrator 22.1.0, SVG Export Plug-In . SVG Version: 6.00 Build 0)  -->
<svg version="1.1" id="Layer_1" xmlns="http://www.w3.org/2000/svg" xmlns:xlink="http://www.w3.org/1999/xlink" x="0px" y="0px"
	 width="45.5px" height="43px" viewBox="0 0 45.5 43" enable-background="new 0 0 45.5 43" xml:space="preserve">
<g>
	<g>
		<path fill="#2D3149" d="M34.6,38.3h-28c-3.3,0-6-2.7-6-6V16.7c0-3.3,2.7-6,6-6h2.6c0.7,0,1.4-0.4,1.8-1.1l0.6-1.1
			c1-2,3.1-3.2,5.3-3.2h7.5c2.2,0,4.3,1.2,5.3,3.2l0.6,1.1c0,0,0,0,0,0c0.3,0.7,1,1.1,1.8,1.1h2.6c3.3,0,6,2.7,6,6v15.6
			C40.6,35.6,37.9,38.3,34.6,38.3z M6.6,14.7c-1.1,0-2,0.9-2,2v15.6c0,1.1,0.9,2,2,2h28c1.1,0,2-0.9,2-2V16.7c0-1.1-0.9-2-2-2H32
			c-2.2,0-4.3-1.2-5.3-3.2l-0.6-1.1c-0.3-0.7-1-1.1-1.8-1.1h-7.5c-0.7,0-1.4,0.4-1.8,1.1l-0.6,1.1c-1,2-3.1,3.2-5.3,3.2H6.6z"/>
	</g>
	<g>
		<path fill="#2D3149" d="M20.6,31.8c-4.8,0-8.7-3.9-8.7-8.7s3.9-8.7,8.7-8.7s8.7,3.9,8.7,8.7S25.4,31.8,20.6,31.8z M20.6,18.5
			c-2.6,0-4.7,2.1-4.7,4.7s2.1,4.7,4.7,4.7s4.7-2.1,4.7-4.7S23.2,18.5,20.6,18.5z"/>
	</g>
</g>
</svg>
