<?xml version="1.0" encoding="utf-8"?>
<!-- Generator: Adobe Illustrator 22.1.0, SVG Export Plug-In . SVG Version: 6.00 Build 0)  -->
<svg version="1.1" id="Layer_1" xmlns="http://www.w3.org/2000/svg" xmlns:xlink="http://www.w3.org/1999/xlink" x="0px" y="0px"
	 width="45.5px" height="43px" viewBox="0 0 45.5 43" enable-background="new 0 0 45.5 43" xml:space="preserve">
<g>
	<g>
		<path fill="#2D3149" d="M36.7,36.4h-28c-3.3,0-6-2.7-6-6V12.6c0-3.3,2.7-6,6-6h28c3.3,0,6,2.7,6,6v5.6c0,1.1-0.9,2-2,2s-2-0.9-2-2
			v-5.6c0-1.1-0.9-2-2-2h-28c-1.1,0-2,0.9-2,2v17.8c0,1.1,0.9,2,2,2h28c1.1,0,2-0.9,2-2V24c0-1.1,0.9-2,2-2s2,0.9,2,2v6.4
			C42.7,33.7,40,36.4,36.7,36.4z"/>
	</g>
	<g>
		<path fill="#2D3149" d="M40.7,20.2h-36c-1.1,0-2-0.9-2-2s0.9-2,2-2h36c1.1,0,2,0.9,2,2S41.8,20.2,40.7,20.2z"/>
	</g>
	<g>
		<path fill="#2D3149" d="M20.2,28.4h-8.1c-1.1,0-2-0.9-2-2s0.9-2,2-2h8.1c1.1,0,2,0.9,2,2S21.3,28.4,20.2,28.4z"/>
	</g>
</g>
</svg>
