<?xml version="1.0" encoding="utf-8"?>
<!-- Generator: Adobe Illustrator 22.1.0, SVG Export Plug-In . SVG Version: 6.00 Build 0)  -->
<svg version="1.1" id="Layer_1" xmlns="http://www.w3.org/2000/svg" xmlns:xlink="http://www.w3.org/1999/xlink" x="0px" y="0px"
	 width="45.5px" height="43px" viewBox="0 0 45.5 43" enable-background="new 0 0 45.5 43" xml:space="preserve">
<g>
	<g>
		<g>
			<path fill="#2D3149" d="M21,41.9c-2.1,0-3.8-1.2-5.1-2.1c-0.7-0.5-1.3-0.9-1.8-1.1c-0.6-0.2-1.4-0.4-2.2-0.5
				c-1.7-0.3-3.6-0.6-5-2.1c-1.4-1.4-1.8-3.3-2.1-5c-0.1-0.8-0.3-1.6-0.5-2.2C4,28.3,3.6,27.6,3.1,27C2.2,25.6,1,24,1,21.9
				c0-2.1,1.2-3.8,2.1-5.1c0.5-0.7,0.9-1.3,1.1-1.8c0.2-0.6,0.4-1.4,0.5-2.2c0.3-1.7,0.6-3.6,2.1-5c1.4-1.4,3.3-1.8,5-2.1
				c0.8-0.1,1.6-0.3,2.2-0.5c0.5-0.2,1.2-0.7,1.8-1.1c1.3-0.9,3-2.1,5.1-2.1c2.1,0,3.8,1.2,5.1,2.1c0.7,0.5,1.3,0.9,1.8,1.1
				c0.6,0.2,1.4,0.4,2.2,0.5c1.7,0.3,3.6,0.6,5,2.1s1.8,3.3,2.1,5c0.1,0.8,0.3,1.6,0.5,2.2c0.2,0.5,0.7,1.2,1.1,1.8
				c0.9,1.3,2.1,3,2.1,5.1s-1.2,3.8-2.1,5.1c-0.5,0.7-0.9,1.3-1.1,1.8c-0.2,0.6-0.4,1.4-0.5,2.2c-0.3,1.7-0.6,3.6-2.1,5
				s-3.3,1.8-5,2.1c-0.8,0.1-1.6,0.3-2.2,0.5c-0.5,0.2-1.2,0.7-1.8,1.1C24.7,40.7,23.1,41.9,21,41.9z M21,5.9
				c-0.8,0-1.8,0.7-2.8,1.4c-0.8,0.6-1.7,1.2-2.6,1.6c-1,0.4-2,0.6-3,0.8c-1.2,0.2-2.3,0.4-2.9,0.9s-0.7,1.7-0.9,2.9
				c-0.2,1-0.4,2-0.8,3c-0.4,1-1,1.8-1.6,2.6c-0.7,1-1.4,2-1.4,2.8s0.7,1.8,1.4,2.8C7,25.5,7.6,26.3,8,27.3c0.4,1,0.6,2,0.8,3
				c0.2,1.2,0.4,2.3,0.9,2.9s1.7,0.7,2.9,0.9c1,0.2,2,0.4,3,0.8c1,0.4,1.8,1,2.6,1.6c1,0.7,2,1.4,2.8,1.4s1.8-0.7,2.8-1.4
				c0.8-0.6,1.7-1.2,2.6-1.6c1-0.4,2-0.6,3-0.8c1.2-0.2,2.3-0.4,2.9-0.9c0.5-0.5,0.7-1.7,0.9-2.9c0.2-1,0.4-2,0.8-3
				c0.4-1,1-1.8,1.6-2.6c0.7-1,1.4-2,1.4-2.8s-0.7-1.8-1.4-2.8c-0.6-0.8-1.2-1.7-1.6-2.6c-0.4-1-0.6-2-0.8-3
				c-0.2-1.2-0.4-2.3-0.9-2.9c-0.5-0.5-1.7-0.7-2.9-0.9c-1-0.2-2-0.4-3-0.8c-1-0.4-1.8-1-2.6-1.6C22.8,6.6,21.8,5.9,21,5.9z"/>
		</g>
	</g>
	<g>
		<g>
			<g>
				<g>
					<path fill="#2D3149" d="M19.4,27c-0.5,0-1-0.2-1.4-0.6c-0.8-0.8-0.8-2,0-2.8l8.3-8.3c0.8-0.8,2-0.8,2.8,0c0.8,0.8,0.8,2,0,2.8
						l-8.3,8.3C20.5,26.8,19.9,27,19.4,27z"/>
				</g>
				<g>
					<g>
						<g>
							<path fill="#2D3149" d="M19.4,27c-0.5,0-1-0.2-1.3-0.5l-4.6-4.2c-0.8-0.7-0.9-2-0.1-2.8c0.7-0.8,2-0.9,2.8-0.1l4.6,4.2
								c0.8,0.7,0.9,2,0.1,2.8C20.5,26.8,20,27,19.4,27z"/>
						</g>
					</g>
				</g>
			</g>
		</g>
		<g>
			<g>
				
					<path fill="none" stroke="#2D3149" stroke-width="4" stroke-linecap="round" stroke-linejoin="round" stroke-miterlimit="10" d="
					M21,12.1"/>
			</g>
		</g>
	</g>
</g>
</svg>
