<?xml version="1.0" encoding="utf-8"?>
<!-- Generator: Adobe Illustrator 22.1.0, SVG Export Plug-In . SVG Version: 6.00 Build 0)  -->
<svg version="1.1" id="Layer_1" xmlns="http://www.w3.org/2000/svg" xmlns:xlink="http://www.w3.org/1999/xlink" x="0px" y="0px"
	 width="45.5px" height="43px" viewBox="0 0 45.5 43" enable-background="new 0 0 45.5 43" xml:space="preserve">
<g>
	<g>
		<path fill="#2D3149" d="M20.4,40.9c-11,0-20-9-20-20s9-20,20-20s20,9,20,20S31.5,40.9,20.4,40.9z M20.4,4.9c-8.8,0-16,7.2-16,16
			s7.2,16,16,16s16-7.2,16-16S29.3,4.9,20.4,4.9z"/>
	</g>
	<g>
		<path fill="#2D3149" d="M29.9,22.9h-9.5c-1.1,0-2-0.9-2-2V10.7c0-1.1,0.9-2,2-2s2,0.9,2,2v8.1h7.5c1.1,0,2,0.9,2,2
			S31,22.9,29.9,22.9z"/>
	</g>
</g>
</svg>
