<?xml version="1.0" encoding="utf-8"?>
<!-- Generator: Adobe Illustrator 22.1.0, SVG Export Plug-In . SVG Version: 6.00 Build 0)  -->
<svg version="1.1" id="Layer_1" xmlns="http://www.w3.org/2000/svg" xmlns:xlink="http://www.w3.org/1999/xlink" x="0px" y="0px"
	 width="45.5px" height="43px" viewBox="0 0 45.5 43" enable-background="new 0 0 45.5 43" xml:space="preserve">
<g>
	<g>
		<g>
			<path fill="#2D3149" d="M40.9,40.3c-0.5,0-1-0.2-1.4-0.6l-35-35c-0.8-0.8-0.8-2,0-2.8c0.8-0.8,2-0.8,2.8,0l35,35
				c0.8,0.8,0.8,2,0,2.8C42,40.1,41.5,40.3,40.9,40.3z"/>
		</g>
	</g>
	<g>
		<g>
			<path fill="#2D3149" d="M40.9,40.3c-0.5,0-1-0.2-1.4-0.6l-35-35c-0.8-0.8-0.8-2,0-2.8c0.8-0.8,2-0.8,2.8,0l35,35
				c0.8,0.8,0.8,2,0,2.8C42,40.1,41.5,40.3,40.9,40.3z"/>
		</g>
	</g>
	<g>
		<g>
			<path fill="#2D3149" d="M5.9,40.3c-0.5,0-1-0.2-1.4-0.6c-0.8-0.8-0.8-2,0-2.8l35-35c0.8-0.8,2-0.8,2.8,0c0.8,0.8,0.8,2,0,2.8
				l-35,35C7,40.1,6.5,40.3,5.9,40.3z"/>
		</g>
	</g>
	<g>
		<g>
			<path fill="#2D3149" d="M5.9,40.3c-0.5,0-1-0.2-1.4-0.6c-0.8-0.8-0.8-2,0-2.8l35-35c0.8-0.8,2-0.8,2.8,0c0.8,0.8,0.8,2,0,2.8
				l-35,35C7,40.1,6.5,40.3,5.9,40.3z"/>
		</g>
	</g>
</g>
</svg>
