<?xml version="1.0" encoding="utf-8"?>
<!-- Generator: Adobe Illustrator 22.1.0, SVG Export Plug-In . SVG Version: 6.00 Build 0)  -->
<svg version="1.1" id="Layer_1" xmlns="http://www.w3.org/2000/svg" xmlns:xlink="http://www.w3.org/1999/xlink" x="0px" y="0px"
	 width="45.5px" height="43px" viewBox="0 0 45.5 43" enable-background="new 0 0 45.5 43" xml:space="preserve">
<g>
	<g>
		<path fill="#2D3149" d="M35.3,41.2H6.6c-2.9,0-5.2-2.3-5.2-5.2v-5.6c0-1.4,0.5-2.8,1.4-3.9l2.5-2.8c0.7-0.8,2-0.9,2.8-0.2
			c0.8,0.7,0.9,2,0.2,2.8l-2.5,2.8c-0.3,0.3-0.5,0.8-0.5,1.2V36c0,0.7,0.5,1.2,1.2,1.2h28.7c0.7,0,1.2-0.5,1.2-1.2v-5.6
			c0-0.5-0.2-0.9-0.5-1.2l-2.5-2.8c-0.7-0.8-0.6-2.1,0.2-2.8s2.1-0.6,2.8,0.2l2.5,2.8c0.9,1.1,1.4,2.4,1.4,3.9V36
			C40.5,38.8,38.2,41.2,35.3,41.2z"/>
	</g>
	<g>
		<path fill="#2D3149" d="M21,27.9c-0.5,0-1-0.2-1.4-0.6L10.2,18c-0.8-0.8-0.8-2,0-2.8c0.8-0.8,2-0.8,2.8,0l7.9,7.9l7.9-7.9
			c0.8-0.8,2-0.8,2.8,0c0.8,0.8,0.8,2,0,2.8l-9.3,9.3C22,27.7,21.5,27.9,21,27.9z"/>
	</g>
	<g>
		<path fill="#2D3149" d="M21,27.4c-1.1,0-2-0.9-2-2V3.2c0-1.1,0.9-2,2-2s2,0.9,2,2v22.3C23,26.5,22.1,27.4,21,27.4z"/>
	</g>
</g>
</svg>
