<?xml version="1.0" encoding="utf-8"?>
<!-- Generator: Adobe Illustrator 22.1.0, SVG Export Plug-In . SVG Version: 6.00 Build 0)  -->
<svg version="1.1" id="Layer_1" xmlns="http://www.w3.org/2000/svg" xmlns:xlink="http://www.w3.org/1999/xlink" x="0px" y="0px"
	 width="45.5px" height="43px" viewBox="0 0 45.5 43" enable-background="new 0 0 45.5 43" xml:space="preserve">
<g>
	<g>
		<g>
			<path fill="#2D3149" d="M22.7,30.9c-0.4,0-0.8-0.1-1.1-0.4L4.9,19.2c-0.9-0.6-1.1-1.9-0.5-2.8c0.6-0.9,1.9-1.1,2.8-0.5l15.6,10.7
				l15.6-10.7c0.9-0.6,2.2-0.4,2.8,0.5c0.6,0.9,0.4,2.2-0.5,2.8L23.9,30.6C23.5,30.8,23.1,30.9,22.7,30.9z"/>
		</g>
		<g>
			<path fill="#2D3149" d="M6,40.8c-0.6,0-1.3-0.3-1.7-0.9c-0.6-0.9-0.4-2.2,0.5-2.8l8.6-5.9c0.9-0.6,2.2-0.4,2.8,0.5
				c0.6,0.9,0.4,2.2-0.5,2.8l-8.6,5.9C6.8,40.7,6.4,40.8,6,40.8z"/>
		</g>
		<g>
			<path fill="#2D3149" d="M39.5,40.8c-0.4,0-0.8-0.1-1.1-0.3l-8.8-6c-0.9-0.6-1.1-1.9-0.5-2.8c0.6-0.9,1.9-1.1,2.8-0.5l8.8,6
				c0.9,0.6,1.1,1.9,0.5,2.8C40.7,40.5,40.1,40.8,39.5,40.8z"/>
		</g>
	</g>
	<g>
		<g>
			<path fill="#2D3149" d="M36.7,41.9h-28c-3.3,0-6-2.7-6-6V17.5c0-1.3,0.6-2.5,1.7-3.3L21.6,2.3c0.7-0.5,1.6-0.5,2.3,0L41,14.2
				c1.1,0.7,1.7,2,1.7,3.3v18.4C42.7,39.2,40,41.9,36.7,41.9z M22.7,6.4l-16,11.1v18.4c0,1.1,0.9,2,2,2h28c1.1,0,2-0.9,2-2V17.5l0,0
				v0c0,0,0,0,0,0L22.7,6.4z"/>
		</g>
	</g>
</g>
</svg>
