<?xml version="1.0" encoding="utf-8"?>
<!-- Generator: Adobe Illustrator 22.1.0, SVG Export Plug-In . SVG Version: 6.00 Build 0)  -->
<svg version="1.1" id="Layer_1" xmlns="http://www.w3.org/2000/svg" xmlns:xlink="http://www.w3.org/1999/xlink" x="0px" y="0px"
	 width="45.5px" height="43px" viewBox="0 0 45.5 43" enable-background="new 0 0 45.5 43" xml:space="preserve">
<g>
	<g>
		<path fill="#2D3149" d="M34.4,38.2h-28c-3.3,0-6-2.7-6-6v-21c0-2.8,2.2-5,5-5h33c0.8,0,1.5,0.5,1.9,1.2c0.3,0.8,0.1,1.6-0.5,2.2
			l-1.2,1.2c-0.8,0.8-2.1,0.8-2.8,0c-0.2-0.2-0.3-0.4-0.4-0.6H5.4c-0.6,0-1,0.4-1,1v21c0,1.1,0.9,2,2,2h28c1.1,0,2-0.9,2-2V17.3
			c0-1.1,0.9-2,2-2s2,0.9,2,2v14.8C40.4,35.5,37.7,38.2,34.4,38.2z"/>
	</g>
	<g>
		<path fill="#2D3149" d="M20.4,25.1c-0.4,0-0.9-0.1-1.3-0.5L2.5,11c-0.9-0.7-1-2-0.3-2.8c0.7-0.9,2-1,2.8-0.3l15.4,12.6L35.9,7.9
			c0.9-0.7,2.1-0.6,2.8,0.3c0.7,0.9,0.6,2.1-0.3,2.8L21.7,24.6C21.3,24.9,20.9,25.1,20.4,25.1z"/>
	</g>
</g>
</svg>
