<?xml version="1.0" encoding="utf-8"?>
<!-- Generator: Adobe Illustrator 22.1.0, SVG Export Plug-In . SVG Version: 6.00 Build 0)  -->
<svg version="1.1" id="Layer_1" xmlns="http://www.w3.org/2000/svg" xmlns:xlink="http://www.w3.org/1999/xlink" x="0px" y="0px"
	 width="45.5px" height="43px" viewBox="0 0 45.5 43" enable-background="new 0 0 45.5 43" xml:space="preserve">
<g>
	<path fill="#2D3149" d="M7.6,41.4c-1.1,0-2-0.9-2-2v-30c0-4.4,3.6-8,8-8h21.4c0.7,0,1.3,0.4,1.7,0.9c0.4,0.6,0.4,1.3,0.1,1.9
		l-4.4,9.3l4.4,9.3c0.3,0.6,0.2,1.3-0.1,1.9c-0.4,0.6-1,0.9-1.7,0.9H15.1c-1.1,0-2-0.9-2-2s0.9-2,2-2h16.8l-3.4-7.3
		c-0.3-0.5-0.3-1.2,0-1.7l3.4-7.3H13.6c-2.2,0-4,1.8-4,4v30C9.6,40.5,8.7,41.4,7.6,41.4z"/>
</g>
</svg>
