<?xml version="1.0" encoding="utf-8"?>
<!-- Generator: Adobe Illustrator 22.1.0, SVG Export Plug-In . SVG Version: 6.00 Build 0)  -->
<svg version="1.1" id="Layer_1" xmlns="http://www.w3.org/2000/svg" xmlns:xlink="http://www.w3.org/1999/xlink" x="0px" y="0px"
	 width="45.5px" height="43px" viewBox="0 0 45.5 43" enable-background="new 0 0 45.5 43" xml:space="preserve">
<g>
	<path fill="#2D3149" d="M36.7,40.2h-28c-3.3,0-6-2.7-6-6v-6.8c0-1.1,0.9-2,2-2s2,0.9,2,2v6.8c0,1.1,0.9,2,2,2h28c1.1,0,2-0.9,2-2
		V17.7c0-1.1-0.9-2-2-2h-9.9c-1.6,0-3-0.6-4.2-1.7l-2.4-2.3c-0.4-0.4-0.9-0.6-1.4-0.6H8.7c-1.1,0-2,0.9-2,2v8.8c0,1.1-0.9,2-2,2
		s-2-0.9-2-2v-8.8c0-3.3,2.7-6,6-6h10.1c1.6,0,3,0.6,4.2,1.7l2.4,2.3c0.4,0.4,0.9,0.6,1.4,0.6h9.9c3.3,0,6,2.7,6,6v16.5
		C42.7,37.5,40,40.2,36.7,40.2z"/>
</g>
</svg>
