<?xml version="1.0" encoding="utf-8"?>
<!-- Generator: Adobe Illustrator 22.1.0, SVG Export Plug-In . SVG Version: 6.00 Build 0)  -->
<svg version="1.1" id="Layer_1" xmlns="http://www.w3.org/2000/svg" xmlns:xlink="http://www.w3.org/1999/xlink" x="0px" y="0px"
	 width="45.5px" height="43px" viewBox="0 0 45.5 43" enable-background="new 0 0 45.5 43" xml:space="preserve">
<g>
	<g>
		<g>
			<path fill="#2D3149" d="M22.5,30.4c-4.3,0-7.8-3.5-7.8-7.8c0-4.3,3.5-7.8,7.8-7.8c4.3,0,7.8,3.5,7.8,7.8
				C30.3,26.9,26.8,30.4,22.5,30.4z M22.5,18.7c-2.1,0-3.8,1.7-3.8,3.8c0,2.1,1.7,3.8,3.8,3.8c2.1,0,3.8-1.7,3.8-3.8
				C26.3,20.5,24.6,18.7,22.5,18.7z"/>
		</g>
	</g>
	<g>
		<path fill="#2D3149" d="M25.9,42.6h-6.8c-1.1,0-2-0.9-2-2v-4c-0.2-0.1-0.5-0.2-0.7-0.3l-2.8,2.8c-0.8,0.8-2,0.8-2.8,0l-4.8-4.8
			c-0.4-0.4-0.6-0.9-0.6-1.4s0.2-1,0.6-1.4l2.8-2.8c-0.1-0.2-0.2-0.5-0.3-0.7h-4c-1.1,0-2-0.9-2-2v-6.8c0-1.1,0.9-2,2-2h4
			c0.1-0.2,0.2-0.5,0.3-0.7l-2.8-2.8c-0.8-0.8-0.8-2,0-2.8L10.7,6c0.8-0.8,2-0.8,2.8,0l2.8,2.8c0.2-0.1,0.5-0.2,0.7-0.3v-4
			c0-1.1,0.9-2,2-2h6.8c1.1,0,2,0.9,2,2v4c0.2,0.1,0.5,0.2,0.7,0.3L31.4,6c0.8-0.8,2-0.8,2.8,0l4.8,4.8c0.8,0.8,0.8,2,0,2.8
			l-2.8,2.8c0.1,0.2,0.2,0.5,0.3,0.7h4c1.1,0,2,0.9,2,2v6.8c0,1.1-0.9,2-2,2h-4c-0.1,0.2-0.2,0.5-0.3,0.7l2.8,2.8
			c0.4,0.4,0.6,0.9,0.6,1.4s-0.2,1-0.6,1.4l-4.8,4.8c-0.8,0.8-2,0.8-2.8,0l-2.8-2.8c-0.2,0.1-0.5,0.2-0.7,0.3v4
			C27.9,41.7,27,42.6,25.9,42.6z M21.1,38.6h2.8v-3.4c0-0.9,0.6-1.7,1.5-1.9c0.9-0.2,1.8-0.6,2.6-1.1c0.8-0.5,1.8-0.3,2.4,0.3
			l2.4,2.4l2-2l-2.4-2.4c-0.6-0.6-0.8-1.6-0.3-2.4c0.5-0.8,0.8-1.7,1.1-2.6c0.2-0.9,1-1.5,1.9-1.5h3.4v-2.8H35
			c-0.9,0-1.7-0.6-1.9-1.5c-0.2-0.9-0.6-1.8-1.1-2.6c-0.5-0.8-0.3-1.8,0.3-2.4l2.4-2.4l-2-2l-2.4,2.4c-0.6,0.6-1.6,0.8-2.4,0.3
			c-0.8-0.5-1.7-0.8-2.6-1.1c-0.9-0.2-1.5-1-1.5-1.9V6.6h-2.8V10c0,0.9-0.6,1.7-1.5,1.9c-0.9,0.2-1.8,0.6-2.6,1.1
			c-0.8,0.5-1.8,0.3-2.4-0.3l-2.4-2.4l-2,2l2.4,2.4c0.6,0.6,0.8,1.6,0.3,2.4c-0.5,0.8-0.8,1.7-1.1,2.6c-0.2,0.9-1,1.5-1.9,1.5H6.5
			v2.8h3.4c0.9,0,1.7,0.6,1.9,1.5c0.2,0.9,0.6,1.8,1.1,2.6c0.5,0.8,0.3,1.8-0.3,2.4l-2.4,2.4l2,2l2.4-2.4c0.6-0.6,1.6-0.8,2.4-0.3
			c0.8,0.5,1.7,0.8,2.6,1.1c0.9,0.2,1.5,1,1.5,1.9V38.6z"/>
	</g>
</g>
</svg>
