<?xml version="1.0" encoding="utf-8"?>
<!-- Generator: Adobe Illustrator 22.1.0, SVG Export Plug-In . SVG Version: 6.00 Build 0)  -->
<svg version="1.1" id="Layer_1" xmlns="http://www.w3.org/2000/svg" xmlns:xlink="http://www.w3.org/1999/xlink" x="0px" y="0px"
	 width="45.5px" height="43px" viewBox="0 0 45.5 43" enable-background="new 0 0 45.5 43" xml:space="preserve">
<g>
	<g>
		<g>
			<g>
				<path fill="#2D3149" d="M23.2,26.6c-0.5,0-1-0.2-1.4-0.6c-0.8-0.8-0.8-2,0-2.8l8.3-8.3c0.8-0.8,2-0.8,2.8,0c0.8,0.8,0.8,2,0,2.8
					L24.6,26C24.2,26.4,23.7,26.6,23.2,26.6z"/>
			</g>
			<g>
				<g>
					<g>
						<path fill="#2D3149" d="M23.2,26.6c-0.5,0-1-0.2-1.3-0.5l-4.6-4.2c-0.8-0.7-0.9-2-0.1-2.8c0.7-0.8,2-0.9,2.8-0.1l4.6,4.2
							c0.8,0.7,0.9,2,0.1,2.8C24.2,26.4,23.7,26.6,23.2,26.6z"/>
					</g>
				</g>
			</g>
		</g>
	</g>
	<g>
		<g>
			<g>
				<path fill="#2D3149" d="M24.7,41.5c-0.9,0-1.7-0.6-1.9-1.4c-0.3-1.1,0.3-2.2,1.3-2.5c7.6-2.3,12.9-9.4,12.9-17.4v-9.8L24.7,5.6
					L20,7.4c-1,0.4-2.2-0.1-2.6-1.2c-0.4-1,0.1-2.2,1.2-2.6L24,1.6c0.5-0.2,1-0.2,1.4,0l14.4,5.5c0.8,0.3,1.3,1,1.3,1.9v11.2
					c0,9.7-6.5,18.4-15.8,21.2C25.1,41.5,24.9,41.5,24.7,41.5z"/>
			</g>
			<g>
				<path fill="#2D3149" d="M24.7,41.5c-0.2,0-0.4,0-0.6-0.1C14.8,38.6,8.3,29.9,8.3,20.2V9c0-0.8,0.5-1.6,1.3-1.9l4-1.5
					c1-0.4,2.2,0.1,2.6,1.2c0.4,1-0.1,2.2-1.2,2.6l-2.7,1v9.8c0,8,5.3,15.1,12.9,17.4c1.1,0.3,1.7,1.4,1.3,2.5
					C26.4,40.9,25.6,41.5,24.7,41.5z"/>
			</g>
		</g>
		<g>
			<path fill="none" stroke="#2D3149" stroke-width="4" stroke-linecap="round" stroke-linejoin="round" stroke-miterlimit="10" d="
				M24.7,11.7"/>
		</g>
	</g>
</g>
</svg>
