<?xml version="1.0" encoding="utf-8"?>
<!-- Generator: Adobe Illustrator 22.1.0, SVG Export Plug-In . SVG Version: 6.00 Build 0)  -->
<svg version="1.1" id="Layer_1" xmlns="http://www.w3.org/2000/svg" xmlns:xlink="http://www.w3.org/1999/xlink" x="0px" y="0px"
	 width="45.5px" height="43px" viewBox="0 0 45.5 43" enable-background="new 0 0 45.5 43" xml:space="preserve">
<g>
	<path fill="#2D3149" d="M22.3,38.2c-0.4,0-0.7-0.1-1-0.3C11.6,32.2,0.9,22,2.5,12.2c0.8-4.5,4.2-8,8.8-8.8c4.1-0.7,8.2,0.8,11,4
		C25.1,4.3,29,2.8,33,3.4c4.6,0.7,8.2,4.1,9.1,8.7c2,9.7-8.4,19.7-18.8,25.8C23,38.1,22.7,38.2,22.3,38.2z M13.2,7.3
		c-0.4,0-0.9,0-1.3,0.1c-2.3,0.4-5,2.1-5.5,5.5c-1.2,7.1,7,15.5,15.9,21.1c8.5-5.2,17.4-13.6,15.9-21c-0.6-2.9-2.9-5.1-5.8-5.6
		C29.1,6.8,26,8.5,24,11.9c-0.4,0.6-1,1-1.7,1s-1.4-0.4-1.7-1C18.6,8.5,15.7,7.3,13.2,7.3z"/>
</g>
</svg>
