<?xml version="1.0" encoding="utf-8"?>
<!-- Generator: Adobe Illustrator 22.1.0, SVG Export Plug-In . SVG Version: 6.00 Build 0)  -->
<svg version="1.1" id="Layer_1" xmlns="http://www.w3.org/2000/svg" xmlns:xlink="http://www.w3.org/1999/xlink" x="0px" y="0px"
	 width="45.5px" height="43px" viewBox="0 0 45.5 43" enable-background="new 0 0 45.5 43" xml:space="preserve">
<g>
	<g>
		<g>
			<path fill="#2D3149" d="M29.5,41.9H11.3c-3.3,0-6-2.7-6-6V22.8c0-1.1,0.9-2,2-2s2,0.9,2,2v13.1c0,1.1,0.9,2,2,2h18.3
				c1.1,0,2-0.9,2-2V22.8c0-1.1,0.9-2,2-2s2,0.9,2,2v13.1C35.5,39.2,32.8,41.9,29.5,41.9z"/>
		</g>
		<g>
			<path fill="#2D3149" d="M38.4,20.6c-0.4,0-0.9-0.1-1.3-0.5L20.4,6.5L3.7,20.1c-0.9,0.7-2.1,0.6-2.8-0.3C0.1,19,0.3,17.7,1.1,17
				l18-14.7c0.7-0.6,1.8-0.6,2.5,0l18,14.7c0.9,0.7,1,2,0.3,2.8C39.6,20.3,39,20.6,38.4,20.6z"/>
		</g>
	</g>
	<g>
		<path fill="#2D3149" d="M20.4,28.4c-2.2,0-4-1.8-4-4s1.8-4,4-4s4,1.8,4,4S22.6,28.4,20.4,28.4z"/>
	</g>
</g>
</svg>
