<?xml version="1.0" encoding="utf-8"?>
<!-- Generator: Adobe Illustrator 22.1.0, SVG Export Plug-In . SVG Version: 6.00 Build 0)  -->
<svg version="1.1" id="Layer_1" xmlns="http://www.w3.org/2000/svg" xmlns:xlink="http://www.w3.org/1999/xlink" x="0px" y="0px"
	 width="45.5px" height="43px" viewBox="0 0 45.5 43" enable-background="new 0 0 45.5 43" xml:space="preserve">
<g>
	<g>
		<g>
			<path fill="#2D3149" d="M11.7,40C9.8,40,8,39,7,37.3l-2.3-3.9c-1.6-2.6-0.7-6,1.9-7.6l13.1-7.9c0.9-0.6,2.2-0.3,2.7,0.7
				c0.6,0.9,0.3,2.2-0.7,2.7L8.5,29.3c-0.7,0.4-0.9,1.4-0.5,2.1l2.3,3.9c0.4,0.7,1.4,0.9,2.1,0.5l13.2-8c0.4-0.2,0.8-0.3,1.3-0.3
				l11.9,1.4L26.7,8.9l-2.4,6.4c-0.4,1-1.5,1.6-2.6,1.2c-1-0.4-1.6-1.5-1.2-2.6l3.2-8.6c0.4-1,1.3-1.8,2.4-1.9
				c1.1-0.1,2.2,0.4,2.7,1.4l14.5,23.9c0.6,0.9,0.6,2.1,0,3c-0.6,0.9-1.7,1.4-2.8,1.3l-13.5-1.6l-12.6,7.6
				C13.6,39.7,12.6,40,11.7,40z"/>
		</g>
		<g>
			<path fill="#2D3149" d="M22.9,41.9c-1.4,0-2.8-0.7-3.6-2l-0.5-0.8c-0.4-0.7-0.2-1.6,0.5-2.1c0.7-0.4,1.6-0.2,2.1,0.5l0.5,0.8
				c0.4,0.6,1.1,0.8,1.7,0.4c0.6-0.4,0.8-1.1,0.4-1.7L22.1,34L18.7,36c-0.7,0.4-1.6,0.2-2.1-0.5c-0.4-0.7-0.2-1.6,0.5-2.1l4.7-2.9
				c0.7-0.4,1.6-0.2,2.1,0.5l2.6,4.4c1.2,2,0.6,4.6-1.4,5.9C24.4,41.7,23.7,41.9,22.9,41.9z"/>
		</g>
	</g>
	<g>
		<path fill="#2D3149" d="M26.7,31.4c-0.7,0-1.3-0.3-1.7-0.9l-6.1-9.8c-0.6-0.9-0.3-2.2,0.6-2.8c0.9-0.6,2.2-0.3,2.8,0.6l6.1,9.8
			c0.6,0.9,0.3,2.2-0.6,2.8C27.4,31.3,27,31.4,26.7,31.4z"/>
	</g>
</g>
</svg>
