<?xml version="1.0" encoding="utf-8"?>
<!-- Generator: Adobe Illustrator 22.1.0, SVG Export Plug-In . SVG Version: 6.00 Build 0)  -->
<svg version="1.1" id="Layer_1" xmlns="http://www.w3.org/2000/svg" xmlns:xlink="http://www.w3.org/1999/xlink" x="0px" y="0px"
	 width="45.5px" height="43px" viewBox="0 0 45.5 43" enable-background="new 0 0 45.5 43" xml:space="preserve">
<g>
	<g>
		<path fill="#2D3149" d="M11.1,42.3c-2.5,0-4.9-1-6.7-2.8c-1.8-1.8-2.8-4.2-2.8-6.7c0-2.5,1-4.9,2.8-6.7l8-8c0.8-0.8,2-0.8,2.8,0
			c0.8,0.8,0.8,2,0,2.8l-8,8c-2.1,2.1-2.1,5.6,0,7.8c2.1,2.1,5.6,2.1,7.8,0l8-8c0.8-0.8,2-0.8,2.8,0c0.8,0.8,0.8,2,0,2.8l-8,8
			C16,41.3,13.6,42.3,11.1,42.3z"/>
	</g>
	<g>
		<path fill="#2D3149" d="M29.8,26.6c-0.5,0-1-0.2-1.4-0.6c-0.8-0.8-0.8-2,0-2.8l7.8-7.8c2.1-2.1,2.1-5.6,0-7.8
			c-2.1-2.1-5.6-2.1-7.8,0l-7.8,7.8c-0.8,0.8-2,0.8-2.8,0c-0.8-0.8-0.8-2,0-2.8l7.8-7.8c3.7-3.7,9.7-3.7,13.4,0
			c3.7,3.7,3.7,9.7,0,13.4L31.3,26C30.9,26.4,30.4,26.6,29.8,26.6z"/>
	</g>
	<g>
		<path fill="#2D3149" d="M17.1,28.8c-0.5,0-1-0.2-1.4-0.6c-0.8-0.8-0.8-2,0-2.8l9.2-9.2c0.8-0.8,2-0.8,2.8,0c0.8,0.8,0.8,2,0,2.8
			l-9.2,9.2C18.1,28.6,17.6,28.8,17.1,28.8z"/>
	</g>
</g>
</svg>
