<?xml version="1.0" encoding="utf-8"?>
<!-- Generator: Adobe Illustrator 22.1.0, SVG Export Plug-In . SVG Version: 6.00 Build 0)  -->
<svg version="1.1" id="Layer_1" xmlns="http://www.w3.org/2000/svg" xmlns:xlink="http://www.w3.org/1999/xlink" x="0px" y="0px"
	 width="45.5px" height="43px" viewBox="0 0 45.5 43" enable-background="new 0 0 45.5 43" xml:space="preserve">
<g>
	<g>
		<path fill="none" stroke="#2D3149" stroke-width="4" stroke-linecap="round" stroke-linejoin="round" stroke-miterlimit="10" d="
			M31.7,12c2.2,2.5,3.6,5.8,3.6,9.4v0c0,7.9-6.4,14.3-14.3,14.3h0c-2.1,0-4.2-0.5-6-1.3"/>
		<path fill="none" stroke="#2D3149" stroke-width="4" stroke-linecap="round" stroke-linejoin="round" stroke-miterlimit="10" d="
			M9.7,30.4c-2-2.4-3.1-5.6-3.1-8.9v0c0-7.9,6.4-14.3,14.3-14.3h0c2.3,0,4.4,0.5,6.4,1.5"/>
		<g>
			
				<polyline fill="none" stroke="#2D3149" stroke-width="4" stroke-linecap="round" stroke-linejoin="round" stroke-miterlimit="10" points="
				12.1,23.8 10.3,31.1 2.9,29.3 			"/>
		</g>
	</g>
	<g>
		<g>
			
				<polyline fill="none" stroke="#2D3149" stroke-width="4" stroke-linecap="round" stroke-linejoin="round" stroke-miterlimit="10" points="
				29.8,19.2 31.6,11.8 38.9,13.7 			"/>
		</g>
	</g>
</g>
</svg>
