<?xml version="1.0" encoding="utf-8"?>
<!-- Generator: Adobe Illustrator 22.1.0, SVG Export Plug-In . SVG Version: 6.00 Build 0)  -->
<svg version="1.1" id="Layer_1" xmlns="http://www.w3.org/2000/svg" xmlns:xlink="http://www.w3.org/1999/xlink" x="0px" y="0px"
	 width="45.5px" height="43px" viewBox="0 0 45.5 43" enable-background="new 0 0 45.5 43" xml:space="preserve">
<g>
	<g>
		<g>
			<path fill="#2D3149" d="M21.2,25.4c-1.8,0-3.6-0.7-4.9-2c-1.3-1.3-2.1-3.1-2.1-4.9s0.7-3.6,2.1-4.9c2.7-2.7,7.2-2.7,9.9,0
				c2.7,2.7,2.7,7.2,0,9.9C24.8,24.7,23,25.4,21.2,25.4z M21.2,15.4c-0.8,0-1.6,0.3-2.1,0.9c-0.6,0.6-0.9,1.3-0.9,2.1
				s0.3,1.6,0.9,2.1c1.1,1.1,3.1,1.1,4.2,0c0.6-0.6,0.9-1.3,0.9-2.1s-0.3-1.6-0.9-2.1C22.7,15.7,22,15.4,21.2,15.4z"/>
		</g>
	</g>
	<g>
		<path fill="#2D3149" d="M21.2,42.8c-0.7,0-1.3-0.3-1.7-0.9c-0.6-0.9-0.3-2.2,0.6-2.8c0.1-0.1,12.7-8.3,13.2-19.9
			c0.1-3.2-1.1-6.3-3.4-8.7c-2.3-2.4-5.4-3.8-8.8-3.8c-1.1,0-2-0.9-2-2s0.9-2,2-2c4.4,0,8.6,1.8,11.7,5c3,3.1,4.6,7.4,4.5,11.6
			c-0.6,13.7-14.5,22.7-15,23.1C21.9,42.7,21.5,42.8,21.2,42.8z"/>
	</g>
	<g>
		<path fill="#2D3149" d="M21.2,42.8c-0.4,0-0.7-0.1-1.1-0.3c-0.4-0.2-9.6-6.2-13.4-15.7C6.4,26.2,6.2,25.5,6,25
			c-0.3-1.1,0.3-2.2,1.3-2.5c1.1-0.3,2.2,0.3,2.5,1.3c0.2,0.5,0.3,1,0.5,1.5c3.4,8.3,11.8,13.8,11.8,13.8c0.9,0.6,1.2,1.8,0.6,2.8
			C22.5,42.4,21.8,42.8,21.2,42.8z"/>
	</g>
	<g>
		<path fill="#2D3149" d="M7,21.3c-1.1,0-2-0.8-2-1.9c-0.2-4.2,1.5-8.5,4.5-11.6c3.1-3.2,7.2-5,11.7-5c1.1,0,2,0.9,2,2s-0.9,2-2,2
			c-3.3,0-6.4,1.3-8.8,3.8C10.1,12.9,8.9,16,9,19.2C9.1,20.3,8.2,21.2,7,21.3C7.1,21.3,7.1,21.3,7,21.3z"/>
	</g>
</g>
</svg>
