<?xml version="1.0" encoding="utf-8"?>
<!-- Generator: Adobe Illustrator 22.1.0, SVG Export Plug-In . SVG Version: 6.00 Build 0)  -->
<svg version="1.1" id="Layer_1" xmlns="http://www.w3.org/2000/svg" xmlns:xlink="http://www.w3.org/1999/xlink" x="0px" y="0px"
	 width="45.5px" height="43px" viewBox="0 0 45.5 43" enable-background="new 0 0 45.5 43" xml:space="preserve">
<g>
	<g>
		<path fill="#2D3149" d="M22.8,19.2c-5.1,0-9.2-4.1-9.2-9.2c0-5.1,4.1-9.2,9.2-9.2c5.1,0,9.2,4.1,9.2,9.2
			C32,15,27.9,19.2,22.8,19.2z M22.8,4.7c-2.9,0-5.2,2.3-5.2,5.2c0,2.9,2.3,5.2,5.2,5.2c2.9,0,5.2-2.3,5.2-5.2
			C28,7.1,25.7,4.7,22.8,4.7z"/>
	</g>
	<g>
		<path fill="#2D3149" d="M22.8,32.6c-1.1,0-2-0.9-2-2v-13c0-1.1,0.9-2,2-2s2,0.9,2,2v13C24.8,31.7,23.9,32.6,22.8,32.6z"/>
	</g>
	<g>
		<path fill="#2D3149" d="M22.8,40.7c-9.3,0-16.6-4.3-16.6-9.8c0-2.3,1.3-4.6,3.8-6.3c0.9-0.6,2.2-0.4,2.8,0.5
			c0.6,0.9,0.4,2.1-0.5,2.8c-0.8,0.6-2.1,1.7-2.1,3c0,2.7,5.4,5.8,12.6,5.8c7.2,0,12.6-3,12.6-5.8c0-1.3-1.2-2.4-2-2.9
			c0,0-0.1-0.1-0.1-0.1c-0.9-0.6-1.1-1.9-0.5-2.8c0.6-0.9,1.9-1.1,2.8-0.5c0,0,0,0,0.1,0.1c2.4,1.7,3.7,3.9,3.7,6.2
			C39.3,36.4,32.1,40.7,22.8,40.7z"/>
	</g>
</g>
</svg>
