<svg id="Layer_1" data-name="Layer 1" xmlns="http://www.w3.org/2000/svg" viewBox="0 0 65.85 65.85"><title>logo</title><path d="M160,98.15v3c0,.54-.84.15,1,2.81a4.65,4.65,0,0,0,.53.63,4.14,4.14,0,0,0,7-.67c.1-.2.17-.39.27-.59-1.46,0-1,.59-2.77.59-2.09,0-2.1-2.83-.26-2.83a3.92,3.92,0,0,1,1.75.17c.31.14.64-.07,1.23-.27.2-.06.45-.17.63-.22l.06-1.65c.07-1.28-.39-1,.39-2.11.11-.16.1,0,.06-.3a1.62,1.62,0,0,0-.09-.35,6.08,6.08,0,0,0-.49-1.27,4.86,4.86,0,0,0-4.29-2.67,5.23,5.23,0,0,0-2.84.56,4.94,4.94,0,0,0-1.52,1.31,6.26,6.26,0,0,0-1.11,2.41c-.14.59.11.35.36.88A1.64,1.64,0,0,1,160,98.15Z" transform="translate(-131.89 -78.55)"/><path d="M156.87,98.3v2.56a1.5,1.5,0,0,0,.36.71,1.2,1.2,0,0,0,2-.82V98.3c0-.81-.59-.84-.59-1a7.33,7.33,0,0,1,.6-2.22,5.35,5.35,0,0,1,5.2-3.37,5.64,5.64,0,0,1,5.43,3.3,5.88,5.88,0,0,1,.39,1c.13.43.15.82.25,1.24a1.38,1.38,0,0,0-.64,1.17v2.29a2.16,2.16,0,0,0,.06.38,4.66,4.66,0,0,1-2.67.85c-.15,0-.25-.27-.69-.27-.67,0-1.59-.13-1.59.75,0,1.09,1.84.74,2,.59s.08-.23.5-.3.88-.13,1.3-.24a13.63,13.63,0,0,0,1.59-.72,1.35,1.35,0,0,0,1.59-.3,1.17,1.17,0,0,0,.33-.95c0-.72.12-2.43-.18-2.86a1,1,0,0,0-.51-.33,7.89,7.89,0,0,0-.73-2.74A7.32,7.32,0,0,0,170,93a8.41,8.41,0,0,0-.85-.91c-1.55-1.5-4.24-1.8-6.28-1.4-3,.61-4.93,3.25-5.32,6.28C157.43,97.72,156.87,97.52,156.87,98.3Z" transform="translate(-131.89 -78.55)"/><path d="M157.3,97.13c0,.07.11.12.08,0s.13,0,0,0S157.3,97,157.3,97.13Z" transform="translate(-131.89 -78.55)"/><path d="M172.58,97.13c0,.14.08,0,0,0S172.58,97,172.58,97.13Z" transform="translate(-131.89 -78.55)"/><path d="M164.82,78.55a32.93,32.93,0,0,1,25.32,54l2.53,1.67-6.39,3.2-4,2-.3.19-1.08.66v-.16l-1,.52.42-7.13.43-7.14,2.31,1.53a24.49,24.49,0,1,0-23,7.66V112.07a3.69,3.69,0,0,1,1.43-2.83,6,6,0,0,1,3.68-1c2.64,0,4.74,1.52,4.74,4.16V144l-.23,0a32.34,32.34,0,0,1-4.81.35,32.93,32.93,0,1,1,0-65.85Z" transform="translate(-131.89 -78.55)"/></svg>