<?xml version="1.0" encoding="utf-8"?>
<!-- Generator: Adobe Illustrator 22.1.0, SVG Export Plug-In . SVG Version: 6.00 Build 0)  -->
<svg version="1.1" id="Layer_1" xmlns="http://www.w3.org/2000/svg" xmlns:xlink="http://www.w3.org/1999/xlink" x="0px" y="0px"
	 width="45.5px" height="43px" viewBox="0 0 45.5 43" enable-background="new 0 0 45.5 43" xml:space="preserve">
<g>
	<g>
		<g>
			<g>
				<path fill="#2D3149" d="M38.5,37.4h-32c-2.2,0-4-1.8-4-4V11.6c0-2.2,1.8-4,4-4h32c2.2,0,4,1.8,4,4v21.8
					C42.5,35.6,40.7,37.4,38.5,37.4z M6.5,11.6v21.8h32l0-21.8H6.5z"/>
			</g>
		</g>
		<g>
			<path fill="#2D3149" d="M38.5,37.4h-6.7c-1.1,0-2-0.9-2-2c0-5.9,4.8-10.7,10.7-10.7c1.1,0,2,0.9,2,2v6.7
				C42.5,35.6,40.7,37.4,38.5,37.4z M34.1,33.4h4.4l0-4.4C36.4,29.7,34.8,31.3,34.1,33.4z"/>
		</g>
		<g>
			<path fill="#2D3149" d="M40.5,20.2c-5.9,0-10.7-4.8-10.7-10.7c0-1.1,0.9-2,2-2h6.7c2.2,0,4,1.8,4,4v6.7
				C42.5,19.3,41.6,20.2,40.5,20.2z M34.1,11.6c0.7,2.1,2.3,3.7,4.4,4.4v-4.4H34.1z"/>
		</g>
		<g>
			<path fill="#2D3149" d="M13.2,37.4H6.5c-2.2,0-4-1.8-4-4v-6.7c0-1.1,0.9-2,2-2c5.9,0,10.7,4.8,10.7,10.7
				C15.2,36.5,14.3,37.4,13.2,37.4z M6.5,29v4.4h4.4C10.2,31.3,8.6,29.7,6.5,29z"/>
		</g>
		<g>
			<path fill="#2D3149" d="M4.5,20.2c-1.1,0-2-0.9-2-2v-6.7c0-2.2,1.8-4,4-4h6.7c1.1,0,2,0.9,2,2C15.2,15.4,10.4,20.2,4.5,20.2z
				 M6.5,11.6L6.5,11.6l0,4.4c2.1-0.7,3.7-2.3,4.4-4.4H6.5z"/>
		</g>
	</g>
	<g>
		<g>
			<path fill="#2D3149" d="M21.9,24.5h-0.2c-2.9,0-5.2-2.3-5.2-5.2s2.3-5.2,5.2-5.2h3.4c1.1,0,2,0.9,2,2s-0.9,2-2,2h-3.4
				c-0.7,0-1.2,0.5-1.2,1.2s0.5,1.2,1.2,1.2h0.2c1.1,0,2,0.9,2,2S23,24.5,21.9,24.5z"/>
		</g>
		<g>
			<path fill="#2D3149" d="M23,30.9h-3.4c-1.1,0-2-0.9-2-2s0.9-2,2-2H23c0.7,0,1.2-0.5,1.2-1.2s-0.5-1.2-1.2-1.2h-1
				c-1.1,0-2-0.9-2-2s0.9-2,2-2h1c2.9,0,5.2,2.3,5.2,5.2S25.9,30.9,23,30.9z"/>
		</g>
	</g>
</g>
</svg>
