<?xml version="1.0" encoding="utf-8"?>
<!-- Generator: Adobe Illustrator 22.1.0, SVG Export Plug-In . SVG Version: 6.00 Build 0)  -->
<svg version="1.1" id="Layer_1" xmlns="http://www.w3.org/2000/svg" xmlns:xlink="http://www.w3.org/1999/xlink" x="0px" y="0px"
	 width="45.5px" height="43px" viewBox="0 0 45.5 43" enable-background="new 0 0 45.5 43" xml:space="preserve">
<g>
	<g>
		<path fill="#2D3149" d="M12.7,26c-0.2,0-0.3,0-0.5-0.1l-8.9-2.2c-1.7-0.4-2.8-1.8-2.9-3.5c-0.1-1.7,0.8-3.2,2.4-3.9L35.1,3.2
			c1-0.4,2.2,0.1,2.6,1.1c0.4,1-0.1,2.2-1.1,2.6L4.7,20l8.5,2.1c1.1,0.3,1.7,1.3,1.5,2.4C14.4,25.4,13.6,26,12.7,26z"/>
	</g>
	<g>
		<path fill="#2D3149" d="M20.7,42.6c-0.3,0-0.5,0-0.8-0.1c-1.7-0.3-3-1.8-3.1-3.5L16,27.2c-0.1-1.7,0.5-3.4,1.7-4.6l4.6-4.7
			c0.8-0.8,2-0.8,2.8,0c0.8,0.8,0.8,2,0,2.8l-4.6,4.7c-0.4,0.4-0.6,1-0.6,1.5l0.8,11.3L36.3,7c-0.9,0.2-1.9-0.3-2.3-1.2
			c-0.4-1,0.1-2.2,1.1-2.6c1.5-0.6,3.2-0.2,4.3,0.9C40.5,5.3,40.7,7,40,8.5l-15.9,32C23.4,41.8,22.1,42.6,20.7,42.6z M20.8,38.7
			L20.8,38.7L20.8,38.7z"/>
	</g>
</g>
</svg>
