<?xml version="1.0" encoding="utf-8"?>
<!-- Generator: Adobe Illustrator 22.1.0, SVG Export Plug-In . SVG Version: 6.00 Build 0)  -->
<svg version="1.1" id="Layer_1" xmlns="http://www.w3.org/2000/svg" xmlns:xlink="http://www.w3.org/1999/xlink" x="0px" y="0px"
	 width="45.5px" height="43px" viewBox="0 0 45.5 43" enable-background="new 0 0 45.5 43" xml:space="preserve">
<g>
	<g>
		<path fill="#2D3149" d="M37.3,37.6h-29c-3.3,0-6-2.7-6-6V8.7c0-3.3,2.7-6,6-6h28c3.3,0,6,2.7,6,6v8.7c0,1.1-0.9,2-2,2s-2-0.9-2-2
			V8.7c0-1.1-0.9-2-2-2h-28c-1.1,0-2,0.9-2,2v22.8c0,1.1,0.9,2,2,2h29c0.6,0,1-0.4,1-1v-5.6c0-1.1,0.9-2,2-2s2,0.9,2,2v5.6
			C42.3,35.3,40.1,37.6,37.3,37.6z"/>
	</g>
	<g>
		<path fill="#2D3149" d="M7.3,37c-0.5,0-1-0.2-1.4-0.6c-0.8-0.8-0.8-2,0-2.8l20.7-20.7c0.4-0.4,0.9-0.6,1.4-0.6
			c0.5,0,1,0.2,1.4,0.6l12.3,12.6c0.8,0.8,0.8,2.1,0,2.8c-0.8,0.8-2.1,0.8-2.8,0L28,17.2L8.7,36.4C8.3,36.8,7.8,37,7.3,37z"/>
	</g>
	<g>
		<path fill="#2D3149" d="M15.3,18.7c-2.2,0-4-1.8-4-4s1.8-4,4-4s4,1.8,4,4S17.5,18.7,15.3,18.7z"/>
	</g>
</g>
</svg>
