<?xml version="1.0" encoding="utf-8"?>
<!-- Generator: Adobe Illustrator 22.1.0, SVG Export Plug-In . SVG Version: 6.00 Build 0)  -->
<svg version="1.1" id="Layer_1" xmlns="http://www.w3.org/2000/svg" xmlns:xlink="http://www.w3.org/1999/xlink" x="0px" y="0px"
	 width="45.5px" height="43px" viewBox="0 0 45.5 43" enable-background="new 0 0 45.5 43" xml:space="preserve">
<g>
	<g>
		<g>
			<path fill="#2D3149" d="M21.2,40.8c-1.1,0-2-0.9-2-2v-36c0-1.1,0.9-2,2-2s2,0.9,2,2v36C23.2,39.9,22.3,40.8,21.2,40.8z"/>
		</g>
	</g>
	<g>
		<g>
			<path fill="#2D3149" d="M21.2,40.8c-1.1,0-2-0.9-2-2v-36c0-1.1,0.9-2,2-2s2,0.9,2,2v36C23.2,39.9,22.3,40.8,21.2,40.8z"/>
		</g>
	</g>
	<g>
		<g>
			<path fill="#2D3149" d="M39.2,22.8h-36c-1.1,0-2-0.9-2-2s0.9-2,2-2h36c1.1,0,2,0.9,2,2S40.3,22.8,39.2,22.8z"/>
		</g>
	</g>
	<g>
		<g>
			<path fill="#2D3149" d="M39.2,22.8h-36c-1.1,0-2-0.9-2-2s0.9-2,2-2h36c1.1,0,2,0.9,2,2S40.3,22.8,39.2,22.8z"/>
		</g>
	</g>
</g>
</svg>
