<?xml version="1.0" encoding="utf-8"?>
<!-- Generator: Adobe Illustrator 22.1.0, SVG Export Plug-In . SVG Version: 6.00 Build 0)  -->
<svg version="1.1" id="Layer_1" xmlns="http://www.w3.org/2000/svg" xmlns:xlink="http://www.w3.org/1999/xlink" x="0px" y="0px"
	 width="45.5px" height="43px" viewBox="0 0 45.5 43" enable-background="new 0 0 45.5 43" xml:space="preserve">
<g>
	<g>
		<g>
			<g>
				<path fill="#2D3149" d="M23,41.1c-11,0-20-9-20-20s9-20,20-20s20,9,20,20S34,41.1,23,41.1z M23,5.1c-8.8,0-16,7.2-16,16
					s7.2,16,16,16s16-7.2,16-16S31.8,5.1,23,5.1z"/>
			</g>
			<g>
				<path fill="#2D3149" d="M32.5,23.1h-19c-1.1,0-2-0.9-2-2s0.9-2,2-2h19c1.1,0,2,0.9,2,2S33.6,23.1,32.5,23.1z"/>
			</g>
		</g>
	</g>
	<g>
		<g>
			<g>
				<path fill="#2D3149" d="M23,32.6c-1.1,0-2-0.9-2-2v-19c0-1.1,0.9-2,2-2s2,0.9,2,2v19C25,31.7,24.1,32.6,23,32.6z"/>
			</g>
		</g>
	</g>
</g>
</svg>
