<?xml version="1.0" encoding="utf-8"?>
<!-- Generator: Adobe Illustrator 22.1.0, SVG Export Plug-In . SVG Version: 6.00 Build 0)  -->
<svg version="1.1" id="Layer_1" xmlns="http://www.w3.org/2000/svg" xmlns:xlink="http://www.w3.org/1999/xlink" x="0px" y="0px"
	 width="45.5px" height="43px" viewBox="0 0 45.5 43" enable-background="new 0 0 45.5 43" xml:space="preserve">
<g>
	<g>
		<path fill="#2D3149" d="M20.1,27.6c-3.6,0-7-1.4-9.5-3.9c-2.5-2.5-3.9-5.9-3.9-9.5V6c0-1.1,0.9-2,2-2s2,0.9,2,2v8.1
			c0,2.5,1,4.9,2.8,6.7c1.8,1.8,4.2,2.8,6.7,2.8c0,0,0,0,0,0l18.6,0c0,0,0,0,0,0c1.1,0,2,0.9,2,2c0,1.1-0.9,2-2,2L20.1,27.6
			C20.1,27.6,20.1,27.6,20.1,27.6z"/>
	</g>
	<g>
		<path fill="#2D3149" d="M28.3,38c-0.5,0-1-0.2-1.4-0.6c-0.8-0.8-0.8-2,0-2.8l9-9l-9-9c-0.8-0.8-0.8-2,0-2.8c0.8-0.8,2-0.8,2.8,0
			l10.4,10.4c0.8,0.8,0.8,2,0,2.8L29.7,37.4C29.3,37.8,28.8,38,28.3,38z"/>
	</g>
</g>
</svg>
