<?xml version="1.0" encoding="utf-8"?>
<!-- Generator: Adobe Illustrator 22.1.0, SVG Export Plug-In . SVG Version: 6.00 Build 0)  -->
<svg version="1.1" id="Layer_1" xmlns="http://www.w3.org/2000/svg" xmlns:xlink="http://www.w3.org/1999/xlink" x="0px" y="0px"
	 width="45.5px" height="43px" viewBox="0 0 45.5 43" enable-background="new 0 0 45.5 43" xml:space="preserve">
<g>
	<g>
		<path fill="#2D3149" d="M18.1,32.8c-8.6,0-15.6-7-15.6-15.6c0-3.8,1.4-7.5,3.9-10.3c3-3.4,7.2-5.3,11.7-5.3
			c8.6,0,15.6,7,15.6,15.6S26.7,32.8,18.1,32.8z M18.1,5.5c-3.3,0-6.5,1.4-8.7,3.9c-1.9,2.1-2.9,4.9-2.9,7.7
			c0,6.4,5.2,11.6,11.6,11.6s11.6-5.2,11.6-11.6S24.5,5.5,18.1,5.5z"/>
	</g>
	<g>
		<path fill="#2D3149" d="M40.4,41.5c-0.5,0-1-0.2-1.4-0.6l-9.9-9.9c-0.8-0.8-0.8-2,0-2.8c0.8-0.8,2-0.8,2.8,0l9.9,9.9
			c0.8,0.8,0.8,2,0,2.8C41.4,41.3,40.9,41.5,40.4,41.5z"/>
	</g>
</g>
</svg>
