<?xml version="1.0" encoding="utf-8"?>
<!-- Generator: Adobe Illustrator 22.1.0, SVG Export Plug-In . SVG Version: 6.00 Build 0)  -->
<svg version="1.1" id="Layer_1" xmlns="http://www.w3.org/2000/svg" xmlns:xlink="http://www.w3.org/1999/xlink" x="0px" y="0px"
	 width="45.5px" height="43px" viewBox="0 0 45.5 43" enable-background="new 0 0 45.5 43" xml:space="preserve">
<g>
	<g>
		<path fill="#2D3149" d="M21,42.3c-10.7,0-19.4-8.7-19.4-19.4c0-6.1,2.8-11.7,7.6-15.4C10,6.8,11.3,7,11.9,7.8
			c0.7,0.9,0.5,2.1-0.4,2.8c-3.8,2.9-6,7.4-6,12.2c0,8.5,6.9,15.4,15.4,15.4s15.4-6.9,15.4-15.4c0-5-2.5-9.8-6.6-12.7
			c-0.9-0.6-1.1-1.9-0.5-2.8c0.6-0.9,1.9-1.1,2.8-0.5c5.2,3.6,8.3,9.6,8.3,15.9C40.4,33.6,31.7,42.3,21,42.3z"/>
	</g>
	<g>
		<path fill="#2D3149" d="M21,22.1c-1.1,0-2-0.9-2-2V4.3c0-1.1,0.9-2,2-2s2,0.9,2,2v15.8C23,21.2,22.1,22.1,21,22.1z"/>
	</g>
</g>
</svg>
