<?xml version="1.0" encoding="utf-8"?>
<!-- Generator: Adobe Illustrator 22.1.0, SVG Export Plug-In . SVG Version: 6.00 Build 0)  -->
<svg version="1.1" id="Layer_1" xmlns="http://www.w3.org/2000/svg" xmlns:xlink="http://www.w3.org/1999/xlink" x="0px" y="0px"
	 width="45.5px" height="43px" viewBox="0 0 45.5 43" enable-background="new 0 0 45.5 43" xml:space="preserve">
<g>
	<g>
		<path fill="#2D3149" d="M34.2,40.3c-0.3,0-0.6-0.1-0.9-0.2l-10.5-5.5l-10.5,5.5c-0.7,0.4-1.5,0.3-2.1-0.1c-0.6-0.4-0.9-1.2-0.8-2
			l2-11.8l-8.5-8.3c-0.5-0.5-0.7-1.3-0.5-2c0.2-0.7,0.9-1.2,1.6-1.4l11.7-1.7l5.3-10.7c0.3-0.7,1-1.1,1.8-1.1s1.5,0.4,1.8,1.1
			l5.3,10.7l11.7,1.7c0.8,0.1,1.4,0.6,1.6,1.4c0.2,0.7,0,1.5-0.5,2l-8.5,8.3l2,11.8c0.1,0.8-0.2,1.5-0.8,2
			C35,40.2,34.6,40.3,34.2,40.3z M22.7,30.3c0.3,0,0.6,0.1,0.9,0.2l7.8,4.1L30,25.8c-0.1-0.6,0.1-1.3,0.6-1.8l6.4-6.2l-8.8-1.3
			c-0.7-0.1-1.2-0.5-1.5-1.1l-3.9-8l-3.9,8c-0.3,0.6-0.9,1-1.5,1.1l-8.8,1.3l6.4,6.2c0.5,0.5,0.7,1.1,0.6,1.8l-1.5,8.8l7.8-4.1
			C22.1,30.3,22.4,30.3,22.7,30.3z"/>
	</g>
</g>
</svg>
