<?xml version="1.0" encoding="utf-8"?>
<!-- Generator: Adobe Illustrator 22.1.0, SVG Export Plug-In . SVG Version: 6.00 Build 0)  -->
<svg version="1.1" id="Layer_1" xmlns="http://www.w3.org/2000/svg" xmlns:xlink="http://www.w3.org/1999/xlink" x="0px" y="0px"
	 width="45.5px" height="43px" viewBox="0 0 45.5 43" enable-background="new 0 0 45.5 43" xml:space="preserve">
<g>
	<g>
		<path fill="#2D3149" d="M21.9,42.7c-1.5,0-3.1-0.2-4.7-0.6c-1.1-0.3-1.7-1.3-1.5-2.4c0.3-1.1,1.3-1.7,2.4-1.5c2.6,0.6,5,0.6,7.6,0
			c1.1-0.3,2.2,0.4,2.4,1.5c0.3,1.1-0.4,2.2-1.5,2.4C25,42.5,23.4,42.7,21.9,42.7z"/>
	</g>
	<g>
		<path fill="#2D3149" d="M17.6,7.3c-0.9,0-1.7-0.6-1.9-1.5c-0.3-1.1,0.4-2.2,1.5-2.4c3.2-0.8,6.3-0.8,9.4,0
			c1.1,0.3,1.7,1.3,1.5,2.4s-1.3,1.7-2.4,1.5c-2.6-0.6-5-0.6-7.6,0C17.9,7.2,17.8,7.3,17.6,7.3z"/>
	</g>
	<g>
		<path fill="#2D3149" d="M39.3,29c-0.2,0-0.3,0-0.5-0.1c-1.1-0.3-1.7-1.3-1.5-2.4c0.3-1.3,0.5-2.6,0.5-3.8c0-1.2-0.2-2.5-0.5-3.8
			c-0.3-1.1,0.4-2.2,1.5-2.4c1.1-0.3,2.2,0.4,2.4,1.5c0.4,1.6,0.6,3.2,0.6,4.7s-0.2,3.1-0.6,4.7C41,28.4,40.2,29,39.3,29z"/>
	</g>
	<g>
		<path fill="#2D3149" d="M39.3,20.5c-0.9,0-1.7-0.6-1.9-1.5C36,13.1,31.5,8.6,25.6,7.2c-1.1-0.3-1.7-1.3-1.5-2.4
			c0.3-1.1,1.3-1.7,2.4-1.5c7.3,1.8,12.9,7.4,14.7,14.7c0.3,1.1-0.4,2.2-1.5,2.4C39.6,20.5,39.5,20.5,39.3,20.5z"/>
	</g>
	<g>
		<path fill="#2D3149" d="M4.4,20.5c-0.2,0-0.3,0-0.5-0.1c-1.1-0.3-1.7-1.3-1.5-2.4C4.2,10.7,9.8,5.1,17.1,3.3
			c1.1-0.3,2.2,0.4,2.4,1.5c0.3,1.1-0.4,2.2-1.5,2.4C12.2,8.6,7.7,13.1,6.3,18.9C6.1,19.9,5.3,20.5,4.4,20.5z"/>
	</g>
	<g>
		<path fill="#2D3149" d="M26.1,42.2c-0.9,0-1.7-0.6-1.9-1.5c-0.3-1.1,0.4-2.2,1.5-2.4c5.8-1.4,10.3-5.9,11.7-11.8
			c0.3-1.1,1.3-1.7,2.4-1.5c1.1,0.3,1.7,1.3,1.5,2.4c-1.8,7.3-7.4,12.9-14.7,14.7C26.4,42.2,26.3,42.2,26.1,42.2z"/>
	</g>
	<g>
		<path fill="#2D3149" d="M17.6,42.2c-0.2,0-0.3,0-0.5-0.1C9.8,40.4,4.2,34.7,2.4,27.4c-0.3-1.1,0.4-2.2,1.5-2.4
			c1.1-0.3,2.2,0.4,2.4,1.5c1.4,5.8,5.9,10.3,11.8,11.8c1.1,0.3,1.7,1.3,1.5,2.4C19.3,41.6,18.5,42.2,17.6,42.2z"/>
	</g>
	<g>
		<path fill="#2D3149" d="M4.4,29c-0.9,0-1.7-0.6-1.9-1.5c-0.4-1.6-0.6-3.2-0.6-4.7s0.2-3.1,0.6-4.7c0.3-1.1,1.3-1.7,2.4-1.5
			c1.1,0.3,1.7,1.3,1.5,2.4c-0.3,1.3-0.5,2.6-0.5,3.8c0,1.2,0.2,2.5,0.5,3.8c0.3,1.1-0.4,2.2-1.5,2.4C4.7,29,4.5,29,4.4,29z"/>
	</g>
	<g>
		<path fill="#2D3149" d="M26.1,17.6c-0.3,0-0.7-0.1-1-0.3c-2-1.2-4.5-1.2-6.5,0c-0.9,0.6-2.2,0.3-2.7-0.7c-0.6-0.9-0.3-2.2,0.7-2.7
			c3.2-1.9,7.4-1.9,10.6,0c0.9,0.6,1.3,1.8,0.7,2.7C27.4,17.2,26.8,17.6,26.1,17.6z"/>
	</g>
	<g>
		<path fill="#2D3149" d="M29,20.5c-0.7,0-1.3-0.3-1.7-1c-0.5-0.9-1.3-1.7-2.2-2.2c-0.9-0.6-1.3-1.8-0.7-2.7
			c0.6-0.9,1.8-1.3,2.7-0.7c1.5,0.9,2.7,2.1,3.6,3.6c0.6,0.9,0.3,2.2-0.7,2.7C29.7,20.4,29.3,20.5,29,20.5z"/>
	</g>
	<g>
		<path fill="#2D3149" d="M26.1,31.9c-0.7,0-1.3-0.3-1.7-1c-0.6-0.9-0.3-2.2,0.7-2.7c0.9-0.5,1.7-1.3,2.2-2.2
			c0.6-0.9,1.8-1.3,2.7-0.7c0.9,0.6,1.3,1.8,0.7,2.7c-0.9,1.5-2.1,2.7-3.6,3.6C26.8,31.8,26.5,31.9,26.1,31.9z"/>
	</g>
	<g>
		<path fill="#2D3149" d="M14.7,29c-0.7,0-1.3-0.3-1.7-1c-1-1.6-1.5-3.4-1.5-5.3c0-1.9,0.5-3.7,1.5-5.3c0.6-0.9,1.8-1.3,2.7-0.7
			c0.9,0.6,1.3,1.8,0.7,2.7c-0.6,1-0.9,2.1-0.9,3.2s0.3,2.2,0.9,3.2c0.6,0.9,0.3,2.2-0.7,2.7C15.4,28.9,15.1,29,14.7,29z"/>
	</g>
	<g>
		<path fill="#2D3149" d="M21.9,33c-1.9,0-3.7-0.5-5.3-1.5c-0.9-0.6-1.3-1.8-0.7-2.7c0.6-0.9,1.8-1.3,2.7-0.7c2,1.2,4.5,1.2,6.4,0
			c0.9-0.6,2.2-0.3,2.7,0.7c0.6,0.9,0.3,2.2-0.7,2.7C25.5,32.5,23.7,33,21.9,33z"/>
	</g>
	<g>
		<path fill="#2D3149" d="M29,29c-0.3,0-0.7-0.1-1-0.3c-0.9-0.6-1.3-1.8-0.7-2.7c0.6-1,0.9-2.1,0.9-3.2s-0.3-2.2-0.9-3.2
			c-0.6-0.9-0.3-2.2,0.7-2.7c0.9-0.6,2.2-0.3,2.7,0.7c1,1.6,1.5,3.4,1.5,5.3c0,1.9-0.5,3.7-1.5,5.3C30.3,28.6,29.7,29,29,29z"/>
	</g>
	<g>
		<path fill="#2D3149" d="M17.6,31.9c-0.3,0-0.7-0.1-1-0.3c-1.5-0.9-2.7-2.1-3.6-3.6c-0.6-0.9-0.3-2.2,0.7-2.7
			c0.9-0.6,2.2-0.3,2.7,0.7c0.5,0.9,1.3,1.7,2.2,2.2c0.9,0.6,1.3,1.8,0.7,2.7C18.9,31.5,18.3,31.9,17.6,31.9z"/>
	</g>
	<g>
		<path fill="#2D3149" d="M14.7,20.5c-0.3,0-0.7-0.1-1-0.3c-0.9-0.6-1.3-1.8-0.7-2.7c0.9-1.5,2.1-2.7,3.6-3.6
			c0.9-0.6,2.2-0.3,2.7,0.7c0.6,0.9,0.3,2.2-0.7,2.7c-0.9,0.5-1.7,1.3-2.2,2.2C16.1,20.1,15.4,20.5,14.7,20.5z"/>
	</g>
	<g>
		<path fill="#2D3149" d="M26.1,42.2c-1.1,0-2-0.9-2-2V29.9c0-1.1,0.9-2,2-2s2,0.9,2,2v10.3C28.1,41.3,27.2,42.2,26.1,42.2z"/>
	</g>
	<g>
		<path fill="#2D3149" d="M26.1,17.6c-1.1,0-2-0.9-2-2V5.3c0-1.1,0.9-2,2-2s2,0.9,2,2v10.3C28.1,16.7,27.2,17.6,26.1,17.6z"/>
	</g>
	<g>
		<path fill="#2D3149" d="M17.6,42.2c-1.1,0-2-0.9-2-2V29.9c0-1.1,0.9-2,2-2s2,0.9,2,2v10.3C19.6,41.3,18.7,42.2,17.6,42.2z"/>
	</g>
	<g>
		<path fill="#2D3149" d="M17.6,17.6c-1.1,0-2-0.9-2-2V5.3c0-1.1,0.9-2,2-2s2,0.9,2,2v10.3C19.6,16.7,18.7,17.6,17.6,17.6z"/>
	</g>
	<g>
		<path fill="#2D3149" d="M39.3,20.5H29c-1.1,0-2-0.9-2-2s0.9-2,2-2h10.3c1.1,0,2,0.9,2,2S40.4,20.5,39.3,20.5z"/>
	</g>
	<g>
		<path fill="#2D3149" d="M14.7,20.5H4.4c-1.1,0-2-0.9-2-2s0.9-2,2-2h10.3c1.1,0,2,0.9,2,2S15.8,20.5,14.7,20.5z"/>
	</g>
	<g>
		<path fill="#2D3149" d="M14.7,29H4.4c-1.1,0-2-0.9-2-2s0.9-2,2-2h10.3c1.1,0,2,0.9,2,2S15.8,29,14.7,29z"/>
	</g>
	<g>
		<path fill="#2D3149" d="M39.3,29H29c-1.1,0-2-0.9-2-2s0.9-2,2-2h10.3c1.1,0,2,0.9,2,2S40.4,29,39.3,29z"/>
	</g>
</g>
</svg>
