<?xml version="1.0" encoding="utf-8"?>
<!-- Generator: Adobe Illustrator 22.1.0, SVG Export Plug-In . SVG Version: 6.00 Build 0)  -->
<svg version="1.1" id="Layer_1" xmlns="http://www.w3.org/2000/svg" xmlns:xlink="http://www.w3.org/1999/xlink" x="0px" y="0px"
	 width="45.5px" height="43px" viewBox="0 0 45.5 43" enable-background="new 0 0 45.5 43" xml:space="preserve">
<g>
	<g>
		<path fill="#2D3149" d="M29.1,30.8H13.4c-6.7,0-12.2-5.5-12.2-12.2S6.7,6.5,13.4,6.5h15.6c6.7,0,12.2,5.5,12.2,12.2
			S35.8,30.8,29.1,30.8z M13.4,10.5c-4.5,0-8.2,3.7-8.2,8.2s3.7,8.2,8.2,8.2h15.6c4.5,0,8.2-3.7,8.2-8.2s-3.7-8.2-8.2-8.2H13.4z"/>
	</g>
	<g>
		<path fill="#2D3149" d="M29,23.8c-2.9,0-5.2-2.3-5.2-5.2s2.3-5.2,5.2-5.2c2.9,0,5.2,2.3,5.2,5.2S31.9,23.8,29,23.8z"/>
	</g>
</g>
</svg>
