<?xml version="1.0" encoding="utf-8"?>
<!-- Generator: Adobe Illustrator 22.1.0, SVG Export Plug-In . SVG Version: 6.00 Build 0)  -->
<svg version="1.1" id="Layer_1" xmlns="http://www.w3.org/2000/svg" xmlns:xlink="http://www.w3.org/1999/xlink" x="0px" y="0px"
	 width="45.5px" height="43px" viewBox="0 0 45.5 43" enable-background="new 0 0 45.5 43" xml:space="preserve">
<g>
	<g>
		<path fill="#2D3149" d="M8.1,19.3c-0.6,0-1.1-0.2-1.5-0.7l-2.5-2.8c-0.9-1.1-1.4-2.4-1.4-3.9V6.4c0-2.9,2.3-5.2,5.2-5.2h28.7
			c2.9,0,5.2,2.3,5.2,5.2V12c0,1.4-0.5,2.8-1.4,3.9l-2.5,2.8c-0.7,0.8-2,0.9-2.8,0.2c-0.8-0.7-0.9-2-0.2-2.8l2.5-2.8
			c0.3-0.3,0.5-0.8,0.5-1.2V6.4c0-0.7-0.5-1.2-1.2-1.2H7.9c-0.7,0-1.2,0.5-1.2,1.2V12c0,0.5,0.2,0.9,0.5,1.2L9.6,16
			c0.7,0.8,0.6,2.1-0.2,2.8C9.1,19.2,8.6,19.3,8.1,19.3z"/>
	</g>
	<g>
		<path fill="#2D3149" d="M31.6,27.8c-0.5,0-1-0.2-1.4-0.6l-7.9-7.9l-7.9,7.9c-0.8,0.8-2,0.8-2.8,0c-0.8-0.8-0.8-2,0-2.8l9.3-9.3
			c0.8-0.8,2.1-0.8,2.8,0l9.3,9.3c0.8,0.8,0.8,2,0,2.8C32.6,27.6,32.1,27.8,31.6,27.8z"/>
	</g>
	<g>
		<path fill="#2D3149" d="M22.3,41.2c-1.1,0-2-0.9-2-2V16.9c0-1.1,0.9-2,2-2s2,0.9,2,2v22.3C24.3,40.3,23.4,41.2,22.3,41.2z"/>
	</g>
</g>
</svg>
