<?xml version="1.0" encoding="utf-8"?>
<!-- Generator: Adobe Illustrator 22.1.0, SVG Export Plug-In . SVG Version: 6.00 Build 0)  -->
<svg version="1.1" id="Layer_1" xmlns="http://www.w3.org/2000/svg" xmlns:xlink="http://www.w3.org/1999/xlink" x="0px" y="0px"
	 width="45.5px" height="43px" viewBox="0 0 45.5 43" enable-background="new 0 0 45.5 43" xml:space="preserve">
<g>
	<g>
		<g>
			<g>
				<path fill="#2D3149" d="M21.3,27.9c-4.5,0-8.2-3.7-8.2-8.2s3.7-8.2,8.2-8.2s8.2,3.7,8.2,8.2S25.8,27.9,21.3,27.9z M21.3,15.5
					c-2.3,0-4.2,1.9-4.2,4.2s1.9,4.2,4.2,4.2s4.2-1.9,4.2-4.2S23.6,15.5,21.3,15.5z"/>
			</g>
		</g>
		<g>
			<path fill="#2D3149" d="M32.1,37.2c-1.1,0-2-0.9-2-2c0-4.1-3.3-7.4-7.4-7.4h-2.9c-4.1,0-7.4,3.3-7.4,7.4c0,1.1-0.9,2-2,2
				s-2-0.9-2-2c0-6.3,5.1-11.4,11.4-11.4h2.9c6.3,0,11.4,5.1,11.4,11.4C34.1,36.3,33.2,37.2,32.1,37.2z"/>
		</g>
	</g>
	<g>
		<path fill="#2D3149" d="M21.3,41.9c-11,0-20-9-20-20s9-20,20-20s20,9,20,20S32.3,41.9,21.3,41.9z M21.3,5.9c-8.8,0-16,7.2-16,16
			s7.2,16,16,16s16-7.2,16-16S30.1,5.9,21.3,5.9z"/>
	</g>
</g>
</svg>
