<?xml version="1.0" encoding="utf-8"?>
<!-- Generator: Adobe Illustrator 22.1.0, SVG Export Plug-In . SVG Version: 6.00 Build 0)  -->
<svg version="1.1" id="Layer_1" xmlns="http://www.w3.org/2000/svg" xmlns:xlink="http://www.w3.org/1999/xlink" x="0px" y="0px"
	 width="45.5px" height="43px" viewBox="0 0 45.5 43" enable-background="new 0 0 45.5 43" xml:space="preserve">
<g>
	<g>
		<g>
			<path fill="#2D3149" d="M23.3,24.1c-6.4,0-11.6-5.2-11.6-11.6S16.9,0.8,23.3,0.8S35,6,35,12.4S29.7,24.1,23.3,24.1z M23.3,4.8
				c-4.2,0-7.6,3.4-7.6,7.6s3.4,7.6,7.6,7.6s7.6-3.4,7.6-7.6S27.5,4.8,23.3,4.8z"/>
		</g>
	</g>
	<g>
		<path fill="#2D3149" d="M40.3,38.8c-1.1,0-2-0.9-2-2c0-7-5.7-12.7-12.7-12.7H21c-7,0-12.7,5.7-12.7,12.7c0,1.1-0.9,2-2,2
			s-2-0.9-2-2c0-9.2,7.5-16.7,16.7-16.7h4.6c9.2,0,16.7,7.5,16.7,16.7C42.3,37.9,41.4,38.8,40.3,38.8z"/>
	</g>
</g>
</svg>
