<?xml version="1.0" encoding="utf-8"?>
<!-- Generator: Adobe Illustrator 22.1.0, SVG Export Plug-In . SVG Version: 6.00 Build 0)  -->
<svg version="1.1" id="Layer_1" xmlns="http://www.w3.org/2000/svg" xmlns:xlink="http://www.w3.org/1999/xlink" x="0px" y="0px"
	 width="45.5px" height="43px" viewBox="0 0 45.5 43" enable-background="new 0 0 45.5 43" xml:space="preserve">
<g>
	<g>
		<g>
			<path fill="#2D3149" d="M36.9,39h-27c-4.4,0-8-3.6-8-8V11.1c0,0,0-0.1,0-0.1c0,0,0-0.1,0-0.1C1.9,7.1,5,4,8.8,4h27.2
				c3.3,0,6,2.7,6,6v0.7c0,1.1-0.9,2-2,2s-2-0.9-2-2V10c0-1.1-0.9-2-2-2H9c-1.7,0-3,1.3-3.1,3c0.1,1.5,1.3,2.7,2.8,2.7h27.2
				c3.3,0,6,2.7,6,6V34C41.9,36.7,39.7,39,36.9,39z M5.9,17.1V31c0,2.2,1.8,4,4,4h27c0.6,0,1-0.4,1-1V19.7c0-1.1-0.9-2-2-2H8.8
				C7.7,17.7,6.8,17.5,5.9,17.1z"/>
		</g>
		<g>
			<path fill="#2D3149" d="M39.9,31.6H31c-2.8,0-5-2.2-5-5v-1.2c0-2.8,2.2-5,5-5h8.9c1.1,0,2,0.9,2,2v7.2
				C41.9,30.7,41,31.6,39.9,31.6z M31,24.5c-0.6,0-1,0.4-1,1v1.2c0,0.6,0.4,1,1,1h6.9v-3.2H31z"/>
		</g>
	</g>
	<g>
		<path fill="none" stroke="#2D3149" stroke-width="4" stroke-linecap="round" stroke-linejoin="round" stroke-miterlimit="10" d="
			M48.7,16.8"/>
	</g>
</g>
</svg>
